<?xml version="1.0" standalone="yes"?>
<svg xmlns="http://www.w3.org/2000/svg" width="53" height="52" viewBox="-10 -10 53 52">
<path style="fill:#faf9f9; stroke:none;" d="M0 0L0 93L314 93L314 0L0 0z"/>
<path style="fill:#99979a; stroke:none;" d="M145 10L149 13C149 9.38813 158.793 11 162 11L160 15L161 15C165.253 10.7112 168.455 13.703 173 16L171 13L176 12L176 25L177 25L177 11L170 13C165.672 7.3146 151.558 10 145 10M192 10L193 13L198 11L198 18L203 18L203 11L207 11L208 27L202 27L203 19L198 19L199 27L192 26L200 28L199 20L202 20L201 28L215 28L212 23L219 24L218 28L234 28L233 25L227 27L228 11L237 11L237 10L226 10L227 26L224 23L223 23L225 27L219 27L217 17L214 16L214 23L213 23L212 21L208 26L209 10L201 10L202 17L199 17L200 10L192 10M217 10L215 15L216 15L217 11L218 11L219 15L220 15L217 10M242 12L249 11L248 26L255 23L256 23L256 27L236 26L236 27C242.224 28.8398 266.614 31.0191 271 26L259 27L259 11L270 11L269 16C275.854 9.9215 261.068 10 258 10L259 26L257 26L257 21L249 25L251 10L242 12M272 10C274.39 16.5687 278.647 20.8887 276 28L285 28L283 20L282 20L283 27L278 27C279.655 20.916 276.48 15.8878 273 11C277.779 11.7778 279.214 14.7547 281 19L284 19L288 10L284 10L285 16L281 17L280 10L272 10M290 11L290 12L293 11L293 16L294 16L293 12L298 14L297 10L290 11z"/>
<path style="fill:#615964; stroke:none;" d="M293.667 10.3333L294.333 10.6667L293.667 10.3333z"/>
<path style="fill:#99979a; stroke:none;" d="M298 10L298 16C300.231 14.0532 300.231 11.9468 298 10M77 11C72.2416 27.0981 76 49.1928 76 66L77 66L77 11z"/>
<path style="fill:#615964; stroke:none;" d="M78 11L78 12L119 12C115.182 24.9182 115.182 52.0818 119 65C123.408 54.4962 120 36.4201 120 25C120 21.6845 121.351 14.3675 118.397 12.0278C115.779 9.95426 110.122 11 107 11L78 11z"/>
<path style="fill:#99979a; stroke:none;" d="M119 11L120 12L119 11z"/>
<path style="fill:#b44460; stroke:none;" d="M148 11C149.541 15.227 152.473 24.7601 147.682 27.9722C144.455 30.1355 141.349 28.3761 139 32C151.082 32.0093 151.75 39.7109 148 50L161 50L159 35C168.105 36.3708 172.684 41.4729 168 50C177.853 48.2143 184.816 35.3828 175.66 27.8542C171.515 24.4463 165.011 25.1903 161.554 20.7755C159.042 17.5673 160.549 14.2598 162 11L148 11z"/>
<path style="fill:#99979a; stroke:none;" d="M185 11L186 51L187 51L187 11L185 11z"/>
<path style="fill:#615964; stroke:none;" d="M194 11L194 27L199 27L198 19L203 19L202 27L208 27L207 11L203 11L203 18L198 18L198 11L194 11M217 11L215 18C218.47 18 219.079 23.9924 219 27L225 27L217 11M228 11L227 27L232 27L232 20L233 20C234.892 23.9293 236.571 26.2837 241 27C237.235 16.6532 241.595 11.0015 228 11z"/>
<path style="fill:#99979a; stroke:none;" d="M238 11L239 12L238 11z"/>
<path style="fill:#615964; stroke:none;" d="M244 11L244 27L256 27L256 23L255 23L248 26L249 11L244 11M259 11L259 27C263.69 27 269.262 28.237 271 23L270 23L263 26L263 19L266 22L267 22L267 16L266 16L263 18L263 12L269 15L270 15L270 11L259 11M273 11C275.779 16.2817 279.147 20.8414 278 27L283 27L283 18L273 11M285 11L285 14L287 11L285 11M291 11C289.938 14.7393 298.793 31.0778 291 23L290 23L290 27C307.143 28.7524 293.297 17.6146 293 11L291 11M296 11L298 15L299 15L299 11L296 11z"/>
<path style="fill:#28282a; stroke:none;" d="M77 12L77 66L107 66L119 64L78 65L78 13L119 13C108.012 8.38934 88.9573 12 77 12z"/>
<path style="fill:#b44460; stroke:none;" d="M170 12L171 13L170 12M175 12L171 13L175 21L176 21L175 12z"/>
<path style="fill:#99979a; stroke:none;" d="M232 12L233 13L232 12z"/>
<path style="fill:#faf9f9; stroke:none;" d="M233 12L232 18C235.901 16.9028 235.772 14.5407 233 12z"/>
<path style="fill:#99979a; stroke:none;" d="M234 12L235 13L234 12M239 12L240 13L239 12M263 12C263.009 14.1729 263.559 20.3455 266 16C263.146 16 264.33 14.3142 265 12L263 12M267 12L268 13L267 12z"/>
<path style="fill:#28282a; stroke:none;" d="M39 13L20.1335 30.0039L15 55L41 61.9954L64 55L63 43L62 43L61 48L45 21C53.6581 23.9539 60.5297 29.5792 62 39L63 39C61.7998 25.3568 47.8894 21.0779 39 13z"/>
<path style="fill:#99979a; stroke:none;" d="M40 13L41 14L40 13z"/>
<path style="fill:#faf9f9; stroke:none;" d="M78 13L78 64L118 64L118 13L78 13z"/>
<path style="fill:#99979a; stroke:none;" d="M235 13L236 14L235 13M244 13L244 25L245 25L244 13M268 13L269 14L268 13M289 13L289 17L290 17L289 13z"/>
<path style="fill:#615964; stroke:none;" d="M38 14L39 15L38 14z"/>
<path style="fill:#99979a; stroke:none;" d="M97 14L97 17L98 17L99 14L97 14M149 14L149 28L150 28L149 14M266 14L266 24L267 24L266 14z"/>
<path style="fill:#615964; stroke:none;" d="M284.333 14.6667L284.667 15.3333L284.333 14.6667z"/>
<path style="fill:#99979a; stroke:none;" d="M37 15L38 16L37 15M39 15L41 17L39 15z"/>
<path style="fill:#615964; stroke:none;" d="M41 15L42 16L41 15z"/>
<path style="fill:#28282a; stroke:none;" d="M98 15L97 19C93.1092 18.1136 91.659 19.0479 91 23L92 23C93.9511 19.6645 96.0078 19.7026 98 23L94 23L94 24L98 24L98 25L93 24L92 24C94.6146 28.0329 99.614 27 104 27L104 26L99 26L98 15z"/>
<path style="fill:#99979a; stroke:none;" d="M240 15L241 16L240 15z"/>
<path style="fill:#faf9f9; stroke:none;" d="M39 16L38 19L42 19L39 16z"/>
<path style="fill:#99979a; stroke:none;" d="M159.333 16.6667L159.667 17.3333L159.333 16.6667M220 16L221 17L220 16M235.333 16.6667L235.667 17.3333L235.333 16.6667z"/>
<path style="fill:#615964; stroke:none;" d="M283.333 16.6667L283.667 17.3333L283.333 16.6667z"/>
<path style="fill:#99979a; stroke:none;" d="M295 16L296 17L295 16M36 17L37 18L36 17M93.6667 17.3333L94.3333 17.6667L93.6667 17.3333z"/>
<path style="fill:#615964; stroke:none;" d="M97 17L98 18L97 17z"/>
<path style="fill:#99979a; stroke:none;" d="M99 17L100 18L99 17M102.667 17.3333L103.333 17.6667L102.667 17.3333M173 17L174 18L173 17M239 17L240 18L239 17M297 17L298 18L297 17M37 18L38 19L37 18M43 18L44 19L43 18z"/>
<path style="fill:#615964; stroke:none;" d="M96 18L97 19L96 18M99 18L101 20L101 18L99 18z"/>
<path style="fill:#28282a; stroke:none;" d="M101 18L101 19L104 24L102 23L101 23L101 24L105 25C105.659 21.0045 104.952 19.2024 101 18z"/>
<path style="fill:#615964; stroke:none;" d="M104 18L105 19L104 18z"/>
<path style="fill:#99979a; stroke:none;" d="M174.333 18.6667L174.667 19.3333L174.333 18.6667z"/>
<path style="fill:#615964; stroke:none;" d="M214.333 18.6667L214.667 19.3333L214.333 18.6667z"/>
<path style="fill:#99979a; stroke:none;" d="M221.333 18.6667L221.667 19.3333L221.333 18.6667M232 18L232 19L235 19L232 18M238 18L239 19L238 18M290 18L291 19L290 18M298 18L299 19L298 18z"/>
<path style="fill:#615964; stroke:none;" d="M35 19L36 20L35 19M37 19L43 21L43 20L37 19z"/>
<path style="fill:#28282a; stroke:none;" d="M39.6667 19.3333L40.3333 19.6667L39.6667 19.3333z"/>
<path style="fill:#99979a; stroke:none;" d="M44.6667 19.3333L45.3333 19.6667L44.6667 19.3333M93 19L94 20L93 19z"/>
<path style="fill:#faf9f9; stroke:none;" d="M92 22L97 23C96.0757 19.7394 93.9215 18.9587 92 22z"/>
<path style="fill:#99979a; stroke:none;" d="M95 19L96 20L95 19M101 19L102 20L101 19z"/>
<path style="fill:#faf9f9; stroke:none;" d="M100 23L104 23L103 19L100 23z"/>
<path style="fill:#99979a; stroke:none;" d="M103 19L104 20L103 19z"/>
<path style="fill:#615964; stroke:none;" d="M105 19L106 20L105 19z"/>
<path style="fill:#99979a; stroke:none;" d="M160.333 19.6667L160.667 20.3333L160.333 19.6667z"/>
<path style="fill:#faf9f9; stroke:none;" d="M215 19L215 21L217 21L217 19L215 19z"/>
<path style="fill:#99979a; stroke:none;" d="M237.333 19.6667L237.667 20.3333L237.333 19.6667M263 19L263 26L269 26L269 25L264 25L266 22L265 19L263 19M291 19L292 20L291 19M299 19L300 20L299 19z"/>
<path style="fill:#615964; stroke:none;" d="M32 20L33 21L32 20M47 20L48 21L47 20z"/>
<path style="fill:#99979a; stroke:none;" d="M48 20L49 21L48 20M90.3333 20.6667L90.6667 21.3333L90.3333 20.6667z"/>
<path style="fill:#615964; stroke:none;" d="M97 20L97 23L98 23L97 20z"/>
<path style="fill:#99979a; stroke:none;" d="M99.3333 20.6667L99.6667 21.3333L99.3333 20.6667M104.333 20.6667L104.667 21.3333L104.333 20.6667M136 20L138 29L135 28L136 32L131 31L131 32L138 32L138 40L139 33L149 33L149 32L137 30L140 30L138 20L136 20z"/>
<path style="fill:#615964; stroke:none;" d="M213 20L213 23L214 23L213 20z"/>
<path style="fill:#99979a; stroke:none;" d="M232 20L233 21L232 20M293 20L294 21L293 20M29 21L30 22L29 21z"/>
<path style="fill:#615964; stroke:none;" d="M33 21L34 22L33 21z"/>
<path style="fill:#faf9f9; stroke:none;" d="M35 22L35 23L44 23L35 22z"/>
<path style="fill:#99979a; stroke:none;" d="M43 21L44 22L43 21M45.6667 21.3333L46.3333 21.6667L45.6667 21.3333z"/>
<path style="fill:#615964; stroke:none;" d="M50 21L51 22L50 21z"/>
<path style="fill:#99979a; stroke:none;" d="M161 21L162 22L161 21M222 21L223 22L222 21M233 21L234 22L233 21M238 21L239 22L238 21M289 21L291 28L291 21L289 21M294.667 21.3333L295.333 21.6667L294.667 21.3333M300 21L300 24L301 24L300 21M27 22L28 23L27 22z"/>
<path style="fill:#615964; stroke:none;" d="M30 22L31 23L30 22z"/>
<path style="fill:#99979a; stroke:none;" d="M31 22L32 23L31 22z"/>
<path style="fill:#faf9f9; stroke:none;" d="M32 22C21.9788 27.3452 17.6657 34.7022 19 46L20 46L32 22z"/>
<path style="fill:#99979a; stroke:none;" d="M33 22L34 23L33 22z"/>
<path style="fill:#615964; stroke:none;" d="M45 22L46 23L45 22z"/>
<path style="fill:#faf9f9; stroke:none;" d="M46 22L50 25C49.2239 32.2411 56.1719 41.8602 61 47C64.3103 35.8008 57.7631 24.1306 46 22z"/>
<path style="fill:#99979a; stroke:none;" d="M49 22L50 23L49 22z"/>
<path style="fill:#615964; stroke:none;" d="M52 22L53 23L52 22z"/>
<path style="fill:#99979a; stroke:none;" d="M92 22L94 24L92 22z"/>
<path style="fill:#615964; stroke:none;" d="M94 22L95 23L94 22M99 22L100 23L99 22z"/>
<path style="fill:#99979a; stroke:none;" d="M101.667 22.3333L102.333 22.6667L101.667 22.3333z"/>
<path style="fill:#615964; stroke:none;" d="M104 22L105 23L104 22z"/>
<path style="fill:#99979a; stroke:none;" d="M162.667 22.3333L163.333 22.6667L162.667 22.3333M270 22L271 25L272 25L272 22L270 22M296 22L297 23L296 22z"/>
<path style="fill:#615964; stroke:none;" d="M26 23L27 24L26 23M28 23L29 24L28 23M35 23L35 25L45 25L35 23z"/>
<path style="fill:#99979a; stroke:none;" d="M46 23L47 24L46 23M51 23L52 24L51 23M54 23L55 24L54 23z"/>
<path style="fill:#615964; stroke:none;" d="M91.6667 23.3333L92.3333 23.6667L91.6667 23.3333M100 23L99 25L99 26L105 26L105 25L100 23z"/>
<path style="fill:#99979a; stroke:none;" d="M103 23L104 24L103 23M105 23L106 24L105 23M108 23L107 25L108 23M164.667 23.3333L165.333 23.6667L164.667 23.3333z"/>
<path style="fill:#615964; stroke:none;" d="M212.333 23.6667L212.667 24.3333L212.333 23.6667z"/>
<path style="fill:#99979a; stroke:none;" d="M234 23L235 24L234 23M239 23L240 24L239 23M269.333 23.6667L269.667 24.3333L269.333 23.6667M291.333 23.6667L291.667 24.3333L291.333 23.6667M297.333 23.6667L297.667 24.3333L297.333 23.6667M27 24L28 25L27 24z"/>
<path style="fill:#615964; stroke:none;" d="M32 24L33 25L32 24z"/>
<path style="fill:#99979a; stroke:none;" d="M34 24L34 26L36 26L34 24z"/>
<path style="fill:#615964; stroke:none;" d="M53 24L54 25L53 24z"/>
<path style="fill:#99979a; stroke:none;" d="M55 24L56 25L55 24M91 24L92 25L91 24z"/>
<path style="fill:#615964; stroke:none;" d="M93 26L98 25L93 26z"/>
<path style="fill:#99979a; stroke:none;" d="M96 24L97 25L96 24M99.6667 24.3333L100.333 24.6667L99.6667 24.3333z"/>
<path style="fill:#615964; stroke:none;" d="M108 24L108 29L109 29L108 24z"/>
<path style="fill:#b44460; stroke:none;" d="M136 24L136 29C138.034 27.2315 138.034 25.7685 136 24z"/>
<path style="fill:#99979a; stroke:none;" d="M167 24L167 25L171 25L167 24M235 24L236 25L235 24M240 24L241 25L240 24M23 25L24 26L23 25M31 25L32 26L31 25z"/>
<path style="fill:#faf9f9; stroke:none;" d="M36 25L39 30L42 29L39 32L45 36L31 29L32 33L35 32L36 33L34 37L33 37L28 34L25 41L55 41L51 34C43.9042 35.5894 43.2488 30.2305 46 25L40 26L36 25z"/>
<path style="fill:#99979a; stroke:none;" d="M40 25L40 26L43 26L40 25z"/>
<path style="fill:#b44460; stroke:none;" d="M43 25L38 26L38 27C40.34 27.6637 43.5327 28.2276 43 25z"/>
<path style="fill:#615964; stroke:none;" d="M47.6667 25.3333L48.3333 25.6667L47.6667 25.3333z"/>
<path style="fill:#99979a; stroke:none;" d="M49.3333 25.6667L49.6667 26.3333L49.3333 25.6667M54 25L55 26L54 25z"/>
<path style="fill:#615964; stroke:none;" d="M56 25L57 26L56 25z"/>
<path style="fill:#99979a; stroke:none;" d="M102 25L103 26L102 25z"/>
<path style="fill:#28282a; stroke:none;" d="M107 25L96 39L93 33L92 33C92.0211 38.9658 93.0246 42.3777 98 46C101.287 40.0958 109.878 32.1285 107 25z"/>
<path style="fill:#99979a; stroke:none;" d="M171.667 25.3333L172.333 25.6667L171.667 25.3333z"/>
<path style="fill:#615964; stroke:none;" d="M210 27L213 27L212 25L210 27z"/>
<path style="fill:#99979a; stroke:none;" d="M292.667 25.3333L293.333 25.6667L292.667 25.3333M296 25L297 26L296 25M299 25L300 26L299 25M22 26L23 27L22 26z"/>
<path style="fill:#615964; stroke:none;" d="M24 26L25 27L24 26M30 26L31 27L30 26M36 26L37 27L36 26z"/>
<path style="fill:#99979a; stroke:none;" d="M45 26L46 27L45 26M55 26L56 27L55 26z"/>
<path style="fill:#615964; stroke:none;" d="M57 26L58 27L57 26z"/>
<path style="fill:#99979a; stroke:none;" d="M92 26L93 27L92 26z"/>
<path style="fill:#615964; stroke:none;" d="M106 26L107 27L106 26z"/>
<path style="fill:#99979a; stroke:none;" d="M136 26L137 27L136 26M174 26L175 27L174 26M294.667 26.3333L295.333 26.6667L294.667 26.3333M298 26L299 27L298 26z"/>
<path style="fill:#615964; stroke:none;" d="M23 27L24 28L23 27M29 27L30 28L29 27M33.6667 27.3333L34.3333 27.6667L33.6667 27.3333M37 27L38 28L37 27M44 27L45 28L44 27z"/>
<path style="fill:#99979a; stroke:none;" d="M56 27L57 28L56 27z"/>
<path style="fill:#615964; stroke:none;" d="M58 27L59 28L58 27M93.6667 27.3333L94.3333 27.6667L93.6667 27.3333z"/>
<path style="fill:#99979a; stroke:none;" d="M95.6667 27.3333L96.3333 27.6667L95.6667 27.3333M100.667 27.3333L101.333 27.6667L100.667 27.3333z"/>
<path style="fill:#615964; stroke:none;" d="M102.667 27.3333L103.333 27.6667L102.667 27.3333z"/>
<path style="fill:#99979a; stroke:none;" d="M105 27L106 28L105 27M175 27L176 28L175 27M292.667 27.3333L293.333 27.6667L292.667 27.3333M296.667 27.3333L297.333 27.6667L296.667 27.3333M28 28L28 31L29 31L28 28z"/>
<path style="fill:#615964; stroke:none;" d="M31 28L32 29L31 28M35 28L36 29L35 28z"/>
<path style="fill:#99979a; stroke:none;" d="M38 28L40 31L38 28M43 28L44 29L43 28M46.6667 28.3333L47.3333 28.6667L46.6667 28.3333M57 28L58 29L57 28M59 28L60 29L59 28M148 28L149 29L148 28z"/>
<path style="fill:#615964; stroke:none;" d="M20 29L21 30L20 29z"/>
<path style="fill:#b44460; stroke:none;" d="M40 29L40 31L42 31L42 29L40 29z"/>
<path style="fill:#615964; stroke:none;" d="M43.3333 29.6667L43.6667 30.3333L43.3333 29.6667M45 29L46 30L45 29z"/>
<path style="fill:#faf9f9; stroke:none;" d="M46 29L50 33L48 29L46 29z"/>
<path style="fill:#99979a; stroke:none;" d="M58 29L59 30L58 29M108 29L109 30L108 29M131 29L132 30L131 29z"/>
<path style="fill:#b44460; stroke:none;" d="M131 30L131 31L136 32L135 29L131 30z"/>
<path style="fill:#99979a; stroke:none;" d="M133 29L134 30L133 29z"/>
<path style="fill:#faf9f9; stroke:none;" d="M138 29L137 31L139 31L138 29z"/>
<path style="fill:#99979a; stroke:none;" d="M177 29L178 30L177 29M19 30L20 31L19 30M21 30L22 31L21 30z"/>
<path style="fill:#615964; stroke:none;" d="M36.3333 30.6667L36.6667 31.3333L36.3333 30.6667z"/>
<path style="fill:#99979a; stroke:none;" d="M45 30L46 31L45 30M50 30L51 31L50 30M103 30L104 31L103 30M178 30L179 31L178 30z"/>
<path style="fill:#615964; stroke:none;" d="M20 31L21 32L20 31M28 31L29 32L28 31z"/>
<path style="fill:#99979a; stroke:none;" d="M31 31L30 35L35 33L35 32L31 31z"/>
<path style="fill:#615964; stroke:none;" d="M38 31L39 32L38 31z"/>
<path style="fill:#99979a; stroke:none;" d="M43 31L44 32L43 31z"/>
<path style="fill:#615964; stroke:none;" d="M49 31L50 32L49 31z"/>
<path style="fill:#99979a; stroke:none;" d="M61 31L62 32L61 31M102 31L103 32L102 31M107 31L108 32L107 31M179 31L179 34L180 34L179 31M18 32L19 33L18 32M27 32L28 33L27 32M36 32L37 33L36 32M39 32L40 33L39 32z"/>
<path style="fill:#615964; stroke:none;" d="M46 32L47 33L46 32M51 32L52 33L51 32M60 32L61 33L60 32z"/>
<path style="fill:#99979a; stroke:none;" d="M91.6667 32.3333L92.3333 32.6667L91.6667 32.3333z"/>
<path style="fill:#615964; stroke:none;" d="M106 32L107 33L106 32z"/>
<path style="fill:#b44460; stroke:none;" d="M136 32L136 37L138 37L138 32L136 32z"/>
<path style="fill:#615964; stroke:none;" d="M19 33L20 34L19 33z"/>
<path style="fill:#28282a; stroke:none;" d="M27 33L24 40L25 40L27 33z"/>
<path style="fill:#615964; stroke:none;" d="M28 33L29 34L28 33z"/>
<path style="fill:#99979a; stroke:none;" d="M29 33L30 34L29 33z"/>
<path style="fill:#b44460; stroke:none;" d="M33 33L33 37L36 33L33 33z"/>
<path style="fill:#615964; stroke:none;" d="M37 33L38 34L37 33z"/>
<path style="fill:#99979a; stroke:none;" d="M44 33L45 34L44 33M49 33L49 35L51 33L49 33M62 33L63 34L62 33z"/>
<path style="fill:#615964; stroke:none;" d="M91 33L92 34L91 33M101 33L102 34L101 33z"/>
<path style="fill:#99979a; stroke:none;" d="M149 33L149 47L150 47L149 33M198 33L198 34L204 34L204 35L197 39L198 39L205 37L204 35L205 35L206 40L207 40L207 33L198 33M214 33L214 51L228 51L227 45L229 46L229 45L227 44L224 49L226 47L227 47C220.94 55.7025 221.439 36.024 222 33L214 33M235 33L235 51L243 51L241 36L240 36L241 50L236 50L236 34L243 35L235 33M249 33L250 36L251 36C251 32.8171 253.615 34.3097 256 35L249 33M259 34L261 41L260 41L256 36L262 43L261 34L264 34L263 37L264 37L265 33L259 34M271 33L272 36L273 36C272.292 32.4581 277.627 33.4907 277 36L278 36L279 33L271 33M288 35L288 36L298 34L298 35C291.645 35.4835 290.144 39.0523 290 45L291 45C291.3 39.5188 293.055 36.0239 299 37L299 34L288 35M300 33L300 40L301 40L300 33M19 34L20 35L19 34M26 34L27 35L26 34z"/>
<path style="fill:#615964; stroke:none;" d="M38 34L39 35L38 34z"/>
<path style="fill:#99979a; stroke:none;" d="M45 34L46 35L45 34z"/>
<path style="fill:#615964; stroke:none;" d="M62 34L63 35L62 34z"/>
<path style="fill:#99979a; stroke:none;" d="M91 34L91 40L92 40L91 34z"/>
<path style="fill:#615964; stroke:none;" d="M93 34L94 35L93 34z"/>
<path style="fill:#99979a; stroke:none;" d="M100 34L101 35L100 34M105 34L106 35L105 34M196 34L192 42L193 42L196 34z"/>
<path style="fill:#615964; stroke:none;" d="M206 49L206 48C195.168 51.3645 193.6 36.6229 204 35C190.108 29.2404 189.2 57.0366 206 49M215 34L216 50L221 50L221 34L215 34M236 34L236 50L241 50L241 34L236 34M250 34L253 50L252 38L263 50L264 34L261 34L261 35L262 43C258.204 38.8445 255.981 34.4607 250 34M272 34L273 50L277 50L278 34L272 34M300 47C289 51.9307 287.311 36.6644 298 35C277.723 26.5742 290.242 63.7007 300 47M299 34L299 38L300 38L299 34M17 35L18 36L17 35z"/>
<path style="fill:#99979a; stroke:none;" d="M27 35L28 36L27 35M40 35L40 36L45 36L40 35M47.6667 35.3333L48.3333 35.6667L47.6667 35.3333M53 35L54 36L53 35M61 35L62 36L61 35M94 35L95 36L94 35z"/>
<path style="fill:#615964; stroke:none;" d="M104 35L105 36L104 35z"/>
<path style="fill:#99979a; stroke:none;" d="M159 35L161 50L144 50L144 51L171 51L171 50L168 50L171 45L170 45C160.862 55.9606 161.152 40.1282 159 35z"/>
<path style="fill:#faf9f9; stroke:none;" d="M160 35C160 38.3525 158.819 44.6171 161.028 47.3966C164.188 51.3744 170.543 47.2955 170.543 43.0355C170.543 37.8188 163.91 36.2832 160 35z"/>
<path style="fill:#99979a; stroke:none;" d="M161.667 35.3333L162.333 35.6667L161.667 35.3333z"/>
<path style="fill:#615964; stroke:none;" d="M204 35L205 38L206 38L206 35L204 35M18 36L19 37L18 36M25 36L26 37L25 36M52 36L53 37L52 36z"/>
<path style="fill:#99979a; stroke:none;" d="M63.3333 36.6667L63.6667 37.3333L63.3333 36.6667z"/>
<path style="fill:#615964; stroke:none;" d="M99 36L100 37L99 36z"/>
<path style="fill:#99979a; stroke:none;" d="M164.667 36.3333L165.333 36.6667L164.667 36.3333M18.3333 37.6667L18.6667 38.3333L18.3333 37.6667M24 37L25 38L24 37M26 37L27 38L26 37M28 38L28 39C32.9748 40.447 46.4149 42.1027 50 38L47 39L40 37L41 39L40 39L37 39L34 37L28 38z"/>
<path style="fill:#615964; stroke:none;" d="M54 37L55 38L54 37z"/>
<path style="fill:#99979a; stroke:none;" d="M98 37L99 38L98 37M167 37L168 38L167 37M287 37L288 38L287 37z"/>
<path style="fill:#615964; stroke:none;" d="M33 38L34 39L33 38M36 38L37 39L36 38M39 38L40 39L39 38z"/>
<path style="fill:#faf9f9; stroke:none;" d="M40 38L41 39L40 38z"/>
<path style="fill:#615964; stroke:none;" d="M42 38L43 39L42 38M47.6667 38.3333L48.3333 38.6667L47.6667 38.3333z"/>
<path style="fill:#99979a; stroke:none;" d="M53 38L54 39L53 38z"/>
<path style="fill:#615964; stroke:none;" d="M63 38L63 44L64 44L63 38M96 38L97 39L96 38z"/>
<path style="fill:#99979a; stroke:none;" d="M102 38L103 39L102 38M168 38L169 39L168 38M252 38L252 49L253 49L255 40L252 38M263 38L263 49L264 49L263 38M286.333 38.6667L286.667 39.3333L286.333 38.6667M16 39L16 43L17 43L16 39M23 39L24 40L23 39M24 40C28.6082 45.2736 48.0843 42 55 42L55 41L24 40M56 40L57 41L56 40z"/>
<path style="fill:#28282a; stroke:none;" d="M63 40L64 41L63 40z"/>
<path style="fill:#99979a; stroke:none;" d="M170 40L171 41L170 40M179.333 40.6667L179.667 41.3333L179.333 40.6667M196 40L196 44L197 44L196 40z"/>
<path style="fill:#615964; stroke:none;" d="M22 41L23 42L22 41z"/>
<path style="fill:#99979a; stroke:none;" d="M100 41L101 42L100 41M18 42L18 45L19 45L18 42M57 42L58 43L57 42M93 42L94 43L93 42M255 42L256 43L255 42z"/>
<path style="fill:#faf9f9; stroke:none;" d="M23.3951 44.0278C20.0045 46.2471 20.0559 51.4718 24.1898 52.6821C30.0583 54.4002 52.6826 55.5714 57.6381 51.9722C61.3605 49.2686 57.0033 44.1641 53.9066 43.3179C48.0238 41.7104 28.5237 40.6707 23.3951 44.0278z"/>
<path style="fill:#99979a; stroke:none;" d="M56 43L57 44L56 43M94 43L95 44L94 43M178 43L179 44L178 43M192 43L192 46L193 46L192 43M256 43L257 44L256 43M20 44L21 45L20 44M63.3333 44.6667L63.6667 45.3333L63.3333 44.6667M95 44L96 45L95 44M98 44L99 45L98 44M177.333 44.6667L177.667 45.3333L177.333 44.6667M257 44L258 45L257 44z"/>
<path style="fill:#615964; stroke:none;" d="M18 45L19 46L18 45z"/>
<path style="fill:#28282a; stroke:none;" d="M20.3333 45.6667L20.6667 46.3333L20.3333 45.6667z"/>
<path style="fill:#615964; stroke:none;" d="M21 45L22 46L21 45z"/>
<path style="fill:#99979a; stroke:none;" d="M57 45L58 46L57 45M59 45L60 46L59 45M96 45L97 46L96 45z"/>
<path style="fill:#615964; stroke:none;" d="M227.333 45.6667L227.667 46.3333L227.333 45.6667z"/>
<path style="fill:#99979a; stroke:none;" d="M286.333 45.6667L286.667 46.3333L286.333 45.6667M17 46L18 47L17 46z"/>
<path style="fill:#615964; stroke:none;" d="M19 46L20 47L19 46z"/>
<path style="fill:#99979a; stroke:none;" d="M23 46L23 50L29 47L28 50L31 49L31 47L23 46M32 46L34 50L36 47L35 50C38.4131 49.5373 40.96 49.5432 42 46L32 46z"/>
<path style="fill:#615964; stroke:none;" d="M38 46L39 47L38 46z"/>
<path style="fill:#99979a; stroke:none;" d="M43 46L43 47L46 48L43 48L43 49L43 50L48 50L48 48L54 49C51.3671 45.3579 47.1917 46.0977 43 46z"/>
<path style="fill:#615964; stroke:none;" d="M58 46L59 47L58 46z"/>
<path style="fill:#99979a; stroke:none;" d="M61 46L62 47L61 46M176 46L177 47L176 46M197 46L198 47L197 46M206 46L207 49L206 46M258 46L259 47L258 46M291.333 46.6667L291.667 47.3333L291.333 46.6667M299 46L300 47L299 46M20 47L21 48L20 47z"/>
<path style="fill:#615964; stroke:none;" d="M27 47L26 49L28 49L27 47z"/>
<path style="fill:#faf9f9; stroke:none;" d="M28.3333 47.6667L28.6667 48.3333L28.3333 47.6667z"/>
<path style="fill:#615964; stroke:none;" d="M34 47L33 49L35 49L34 47z"/>
<path style="fill:#faf9f9; stroke:none;" d="M35 47L36 48L35 47z"/>
<path style="fill:#615964; stroke:none;" d="M45 47L46 48L45 47z"/>
<path style="fill:#99979a; stroke:none;" d="M60 47L61 48L60 47z"/>
<path style="fill:#615964; stroke:none;" d="M62 47L63 48L62 47z"/>
<path style="fill:#99979a; stroke:none;" d="M175 47L176 48L175 47M193 47L194 48L193 47z"/>
<path style="fill:#615964; stroke:none;" d="M226 47L223 49L223 50C225.348 49.7058 226.951 49.5066 226 47z"/>
<path style="fill:#99979a; stroke:none;" d="M259.333 47.6667L259.667 48.3333L259.333 47.6667M287.333 47.6667L287.667 48.3333L287.333 47.6667M298 47L299 48L298 47M300.333 47.6667L300.667 48.3333L300.333 47.6667z"/>
<path style="fill:#615964; stroke:none;" d="M44 48L45 49L44 48z"/>
<path style="fill:#faf9f9; stroke:none;" d="M51 48L52 49L51 48z"/>
<path style="fill:#99979a; stroke:none;" d="M59 48L60 49L59 48z"/>
<path style="fill:#28282a; stroke:none;" d="M86 48L86 53L87 53L86 48z"/>
<path style="fill:#99979a; stroke:none;" d="M87 48L87 52L88 52L87 48z"/>
<path style="fill:#615964; stroke:none;" d="M90 48L91 49L90 48z"/>
<path style="fill:#99979a; stroke:none;" d="M93.3333 48.6667L93.6667 49.3333L93.3333 48.6667z"/>
<path style="fill:#28282a; stroke:none;" d="M94 48L94 53L97 53L94 48z"/>
<path style="fill:#99979a; stroke:none;" d="M96 48L95 49L95 50L96 51L97 51L98 50L98 49L96 48z"/>
<path style="fill:#615964; stroke:none;" d="M97 48L98 49L97 48M102 48L103 49L102 48z"/>
<path style="fill:#99979a; stroke:none;" d="M107 48L108 49L107 48z"/>
<path style="fill:#615964; stroke:none;" d="M107 51L110 51L108 54L111 52L111 51L110 48L107 51z"/>
<path style="fill:#99979a; stroke:none;" d="M110 48L111 49L110 48M148 48L149 49L148 48M173 48L174 49L173 48M194 48L195 49L194 48M198.667 48.3333L199.333 48.6667L198.667 48.3333M203.667 48.3333L204.333 48.6667L203.667 48.3333M277 48L271 49L279 51L277 48M292 48L293 49L292 48M297 48L298 49L297 48M17 49L18 50L17 49z"/>
<path style="fill:#28282a; stroke:none;" d="M90 49L91 50L90 49z"/>
<path style="fill:#615964; stroke:none;" d="M96 49L97 50L96 49z"/>
<path style="fill:#99979a; stroke:none;" d="M101 49L100 52L103 52L101 49z"/>
<path style="fill:#28282a; stroke:none;" d="M102 49L105 53L102 49z"/>
<path style="fill:#99979a; stroke:none;" d="M103 49L104 50L103 49z"/>
<path style="fill:#28282a; stroke:none;" d="M107 49L108 50L107 49z"/>
<path style="fill:#99979a; stroke:none;" d="M171.667 49.3333L172.333 49.6667L171.667 49.3333M195 49L196 50L195 49M200 49L200 50L203 50L200 49M205 49L206 50L205 49M249 49L255 51L255 50L249 49M260 49L261 50L260 49M289 49L290 50L289 49M294.667 49.3333L295.333 49.6667L294.667 49.3333M299 49L300 50L299 49z"/>
<path style="fill:#615964; stroke:none;" d="M18 50L19 51L18 50M90 50L87 52C89.022 54.1421 90.5984 52.5858 90 50M102 50L103 51L102 50z"/>
<path style="fill:#28282a; stroke:none;" d="M108 50L110 52L108 50z"/>
<path style="fill:#99979a; stroke:none;" d="M196.667 50.3333L197.333 50.6667L196.667 50.3333M203 50L204 51L203 50M261.667 50.3333L262.333 50.6667L261.667 50.3333M290.667 50.3333L291.333 50.6667L290.667 50.3333M297 50L298 51L297 50z"/>
<path style="fill:#615964; stroke:none;" d="M16 51L17 52L16 51z"/>
<path style="fill:#faf9f9; stroke:none;" d="M18 51L18 53L20 53L20 51L18 51z"/>
<path style="fill:#99979a; stroke:none;" d="M21 51L22 52L21 51z"/>
<path style="fill:#615964; stroke:none;" d="M60.6667 51.3333L61.3333 51.6667L60.6667 51.3333z"/>
<path style="fill:#99979a; stroke:none;" d="M93.3333 51.6667L93.6667 52.3333L93.3333 51.6667z"/>
<path style="fill:#615964; stroke:none;" d="M96 51L97 52L96 51z"/>
<path style="fill:#28282a; stroke:none;" d="M101 51L102 52L101 51z"/>
<path style="fill:#99979a; stroke:none;" d="M104 51L105 52L104 51M108 51L107 54L108 54L108 51M199 51L199 52L202 52L199 51M293 51L293 52L296 52L293 51M17.3333 52.6667L17.6667 53.3333L17.3333 52.6667M20.3333 52.6667L20.6667 53.3333L20.3333 52.6667z"/>
<path style="fill:#615964; stroke:none;" d="M58 52L59 53L58 52z"/>
<path style="fill:#faf9f9; stroke:none;" d="M60.6667 52.3333L61.3333 52.6667L60.6667 52.3333z"/>
<path style="fill:#99979a; stroke:none;" d="M63 52L64 53L63 52M89 52L90 53L89 52M95 52L96 53L95 52z"/>
<path style="fill:#615964; stroke:none;" d="M97.3333 52.6667L97.6667 53.3333L97.3333 52.6667M100 52L100 54L102 52L100 52z"/>
<path style="fill:#faf9f9; stroke:none;" d="M108 52L109 53L108 52z"/>
<path style="fill:#28282a; stroke:none;" d="M110 52L111 53L110 52z"/>
<path style="fill:#615964; stroke:none;" d="M18.6667 53.3333L19.3333 53.6667L18.6667 53.3333z"/>
<path style="fill:#99979a; stroke:none;" d="M23.6667 53.3333L24.3333 53.6667L23.6667 53.3333z"/>
<path style="fill:#615964; stroke:none;" d="M25 55C34.1664 52.8177 46.8336 52.8177 56 55C52.5263 51.0247 28.4737 51.0247 25 55z"/>
<path style="fill:#99979a; stroke:none;" d="M56 53L57 54L56 53z"/>
<path style="fill:#615964; stroke:none;" d="M57 53L58 54L57 53z"/>
<path style="fill:#99979a; stroke:none;" d="M60.6667 53.3333L61.3333 53.6667L60.6667 53.3333M86 53L87 54L86 53z"/>
<path style="fill:#615964; stroke:none;" d="M94 53L95 54L94 53z"/>
<path style="fill:#99979a; stroke:none;" d="M96 53L97 54L96 53M103 53L104 54L103 53z"/>
<path style="fill:#615964; stroke:none;" d="M104 53L105 54L104 53z"/>
<path style="fill:#99979a; stroke:none;" d="M109 53L110 54L109 53z"/>
<path style="fill:#615964; stroke:none;" d="M16 54L17 55L16 54M21 54L22 55L21 54z"/>
<path style="fill:#28282a; stroke:none;" d="M26 54L26 55L55 55L26 54z"/>
<path style="fill:#615964; stroke:none;" d="M58.6667 54.3333L59.3333 54.6667L58.6667 54.3333M62 54L63 55L62 54z"/>
<path style="fill:#99979a; stroke:none;" d="M64 54L65 55L64 54z"/>
<path style="fill:#faf9f9; stroke:none;" d="M25 55L25 56C35.1228 61.8804 44.9451 62.3182 55 56L25 55z"/>
<path style="fill:#99979a; stroke:none;" d="M55 55L56 56L55 55z"/>
<path style="fill:#615964; stroke:none;" d="M57 55L58 56L57 55z"/>
<path style="fill:#99979a; stroke:none;" d="M83 58L84 58L87 56C84.5799 54.7222 83.5104 55.4077 83 58M88 55L88 56L93 57L89 58L93 62L93 59L95 61L96 60L94 59L95 55L94 55L95 57L94 57L91 57L91 55L88 55M97 55L98 61L95 62L95 63L101 63L102 62L101 58L109 56L97 55M111 55L110 59L113 59L111 55z"/>
<path style="fill:#615964; stroke:none;" d="M112 55L112 58L113 58L112 55M54 56L55 57L54 56z"/>
<path style="fill:#99979a; stroke:none;" d="M56 56L57 57L56 56z"/>
<path style="fill:#615964; stroke:none;" d="M84 56C85.1266 58.0059 85.8734 58.0059 87 56L84 56z"/>
<path style="fill:#28282a; stroke:none;" d="M88 56L89 57L88 56M91 56L92 57L91 56M94 56L95 57L94 56z"/>
<path style="fill:#615964; stroke:none;" d="M96 56L95 58L97 58L96 56z"/>
<path style="fill:#faf9f9; stroke:none;" d="M98 56L99 57L98 56z"/>
<path style="fill:#28282a; stroke:none;" d="M100 56L101 57L100 56z"/>
<path style="fill:#faf9f9; stroke:none;" d="M101 56L102 57L101 56z"/>
<path style="fill:#28282a; stroke:none;" d="M102 56L103 57L102 56z"/>
<path style="fill:#615964; stroke:none;" d="M103 57L103 58L107 56L103 57z"/>
<path style="fill:#faf9f9; stroke:none;" d="M107 56L108 57L107 56z"/>
<path style="fill:#615964; stroke:none;" d="M108 56L111 58L108 56z"/>
<path style="fill:#99979a; stroke:none;" d="M215 56L216 65L221 63C222.417 65.5234 223.483 64.4584 224 62C227.325 64.233 228.85 64.601 232 62L233 65L246 65L246 60L245 60L245 64L243 56L240 56L241 64L239 58L235 57L237 63L236 63L233 56L230 62L228 62L228 56L227 56L227 63L226 63L225 56L224 56L223 64L222 64L222 56L218 57L220 63L215 56z"/>
<path style="fill:#b44460; stroke:none;" d="M216 56L220 63L216 56M222 56L222 64L223 64L224 56L222 56M225 56L226 63L227 63L225 56z"/>
<path style="fill:#99979a; stroke:none;" d="M229 56L230 57L229 56z"/>
<path style="fill:#b44460; stroke:none;" d="M230.333 56.6667L230.667 57.3333L230.333 56.6667M233 56L236 63L237 63L233 56z"/>
<path style="fill:#99979a; stroke:none;" d="M238 56L239 57L238 56z"/>
<path style="fill:#b44460; stroke:none;" d="M239 56L241 64L239 56M243 56L245 64L245 60L246 60L246 64L247 64L247 56L244 59L245 56L243 56z"/>
<path style="fill:#99979a; stroke:none;" d="M245 56L244 59L245 56M247 56L248 57L247 56M251 56L251 57L251 58L253 59L254 59L251 56M256 56L256 62L255 62L255 60L254 60L255 64L251 59L247 64L251 63L252 63L260 64L260 63L257 64L256 56z"/>
<path style="fill:#b44460; stroke:none;" d="M257 56L257 64L259 64L259 56L257 56z"/>
<path style="fill:#99979a; stroke:none;" d="M259 56L259 62L260 62L259 56M263 56L263 67L264 67L263 56M267 56L268 57L267 56z"/>
<path style="fill:#b44460; stroke:none;" d="M268 56L268 64L270 64L270 56L268 56z"/>
<path style="fill:#99979a; stroke:none;" d="M270 56L268 64L268 65L273 64L273 56L270 56M275 56C273.053 65.4611 285.561 67.1146 292 63L293 63L299 65L300 56L299 56L299 64L298 64L298 56L297 56L297 63L296 63L296 61L295 61L296 64L292 57L293 57L294 60L295 60L294 56L292 56L290 61L289 61L288 56L287 56L288 63L286 56L285 56L285 64L283 56L278 56L278 57L279 64L275 56z"/>
<path style="fill:#b44460; stroke:none;" d="M276 56L279 64L278 56L276 56M280 56L281 57L280 56M283 56L283 64L285 64L285 56L283 56M286 56L288 63L286 56M298 56L298 64L299 64L298 56z"/>
<path style="fill:#615964; stroke:none;" d="M25 57L26 58L25 57M27 57L28 58L27 57z"/>
<path style="fill:#99979a; stroke:none;" d="M52 57L53 58L52 57M55 57L56 58L55 57M87 57L86 59L88 59L87 57z"/>
<path style="fill:#615964; stroke:none;" d="M88.6667 57.3333L89.3333 57.6667L88.6667 57.3333z"/>
<path style="fill:#faf9f9; stroke:none;" d="M90 57L93 59L93 58L90 57z"/>
<path style="fill:#615964; stroke:none;" d="M92 57L93 58L92 57M99.6667 57.3333L100.333 57.6667L99.6667 57.3333z"/>
<path style="fill:#99979a; stroke:none;" d="M107 57L106 60L104 63L107 62L107 57z"/>
<path style="fill:#faf9f9; stroke:none;" d="M224.333 57.6667L224.667 58.3333L224.333 57.6667M241 57L241 63L242 63L241 57z"/>
<path style="fill:#b44460; stroke:none;" d="M252 57L255 64L252 57M263 57L263 66L264 66L263 57M272 57L272 63L274 63L274 57L272 57z"/>
<path style="fill:#faf9f9; stroke:none;" d="M278 57L278 62L280 62L280 57L278 57z"/>
<path style="fill:#b44460; stroke:none;" d="M292 57L296 64L292 57z"/>
<path style="fill:#99979a; stroke:none;" d="M26 58L27 59L26 58M29 58L30 59L29 58z"/>
<path style="fill:#615964; stroke:none;" d="M51 58L52 59L51 58z"/>
<path style="fill:#faf9f9; stroke:none;" d="M94 58L94 59L96 61L97 61L94 58M99 58L100 59L99 58M101 60L105 59L101 60M282 58L282 63L283 63L282 58z"/>
<path style="fill:#615964; stroke:none;" d="M28 59L29 60L28 59z"/>
<path style="fill:#99979a; stroke:none;" d="M31 59L32 60L31 59M48 59L49 60L48 59z"/>
<path style="fill:#615964; stroke:none;" d="M49 59L50 60L49 59z"/>
<path style="fill:#99979a; stroke:none;" d="M52 59L53 60L52 59z"/>
<path style="fill:#faf9f9; stroke:none;" d="M93 59L94 60L93 59z"/>
<path style="fill:#99979a; stroke:none;" d="M247 59L248 60L247 59z"/>
<path style="fill:#615964; stroke:none;" d="M30 60L31 61L30 60M34 60L35 61L34 60z"/>
<path style="fill:#99979a; stroke:none;" d="M35 60L36 61L35 60M44.6667 60.3333L45.3333 60.6667L44.6667 60.3333z"/>
<path style="fill:#615964; stroke:none;" d="M46 60L47 61L46 60z"/>
<path style="fill:#99979a; stroke:none;" d="M50 60L51 61L50 60z"/>
<path style="fill:#28282a; stroke:none;" d="M90 60L91 61L90 60z"/>
<path style="fill:#615964; stroke:none;" d="M92 60L94 62L94 60L92 60M95.3333 60.6667L95.6667 61.3333L95.3333 60.6667M97 60L98 61L97 60M99.3333 60.6667L99.6667 61.3333L99.3333 60.6667M102 62L106 61L102 62z"/>
<path style="fill:#99979a; stroke:none;" d="M32 61L33 62L32 61z"/>
<path style="fill:#615964; stroke:none;" d="M33 61L34 62L33 61M47 61L48 62L47 61M90.6667 61.3333L91.3333 61.6667L90.6667 61.3333z"/>
<path style="fill:#28282a; stroke:none;" d="M106 61L107 62L106 61z"/>
<path style="fill:#b44460; stroke:none;" d="M250 61L251 62L250 61z"/>
<path style="fill:#99979a; stroke:none;" d="M36.6667 62.3333L37.3333 62.6667L36.6667 62.3333z"/>
<path style="fill:#615964; stroke:none;" d="M38 62L38 63L42 63L38 62z"/>
<path style="fill:#99979a; stroke:none;" d="M42 62L42 63L45 63L42 62M90 62L91 63L90 62z"/>
<path style="fill:#b44460; stroke:none;" d="M227.667 63.3333L228.333 63.6667L227.667 63.3333M233 63L234 64L233 63M249 63L250 64L249 63z"/>
<path style="fill:#99979a; stroke:none;" d="M267 63L268 64L267 63z"/>
<path style="fill:#b44460; stroke:none;" d="M271 63L272 64L271 63M286 63L287 64L286 63M290 63L291 64L290 63z"/>
<path style="fill:#99979a; stroke:none;" d="M78 64L78 65L118 65C107.488 60.589 89.434 64 78 64M119 65L120 66L119 65M78 66L78 67L96 67L78 66M98 66L99 67L98 66M96 68L119 67L96 68M10 67L10 68L13 68L10 67M17.6667 67.3333L18.3333 67.6667L17.6667 67.3333M26 67L27 68L26 67M28 67L28 68L32 68L32 69L30 69L30 70L39 71L39 68L34 67L28 67z"/>
<path style="fill:#615964; stroke:none;" d="M34 67L34 68L38 69L38 68L34 67z"/>
<path style="fill:#99979a; stroke:none;" d="M35 67L36 68L35 67M40 67L41 68L40 67M42 67L42 68L44 68L44 69L40 69L40 70L46 70L42 67M51 67C51.9816 71.5809 58.1162 70 62 70L62 69L52 69L52 68L54 68L51 67M56 67L57 68L56 67M58.6667 67.3333L59.3333 67.6667L58.6667 67.3333M66 67L63 71L66 67M68 67L68 70L69 70L72 70L72 69L71 67L68 67M72 67L74 69L74 67L72 67z"/>
<path style="fill:#faf9f9; stroke:none;" d="M102 67L103 68L102 67z"/>
<path style="fill:#615964; stroke:none;" d="M10 68L11 69L10 68z"/>
<path style="fill:#28282a; stroke:none;" d="M11 68L12 69L11 68z"/>
<path style="fill:#615964; stroke:none;" d="M12 68L12 69L22 69L12 68z"/>
<path style="fill:#99979a; stroke:none;" d="M22 68L23 69L22 68z"/>
<path style="fill:#615964; stroke:none;" d="M24 68L24 69L27 69L24 68M28 68L29 70L30 70L31 68L28 68z"/>
<path style="fill:#28282a; stroke:none;" d="M31 68L32 69L31 68M34 68L35 69L34 68z"/>
<path style="fill:#615964; stroke:none;" d="M38 69L38 70L44 69L38 69M46.3333 68.6667L46.6667 69.3333L46.3333 68.6667z"/>
<path style="fill:#99979a; stroke:none;" d="M47 68L47 69L50 70L50 69L50 68L47 68z"/>
<path style="fill:#615964; stroke:none;" d="M48 68L49 69L48 68M52 68L53 69L52 68z"/>
<path style="fill:#28282a; stroke:none;" d="M53 68L54 69L53 68z"/>
<path style="fill:#615964; stroke:none;" d="M54 68L54 69L65 69L54 68M70 68L70 69L73 70L70 68z"/>
<path style="fill:#28282a; stroke:none;" d="M72 68L73 69L72 68z"/>
<path style="fill:#615964; stroke:none;" d="M97 68L98 69L97 68z"/>
<path style="fill:#99979a; stroke:none;" d="M150 76L151 76L153 69C148.927 68.9035 149.185 72.9141 150 76M157 68L157 69L166 70L166 71L163 70L163 71L166 72L165 76L173 76L174 69L178 69L178 68C173.638 68.7279 173.137 70.8242 173 75L168 75L167 75L167 69L168 69L170 72L171 71L157 68M179 68L179 69L182 71L185 69L184 75L184 76L188 76C186.483 69.984 185.369 68.3116 179 68M188.667 68.3333L189.333 68.6667L188.667 68.3333M196 69L196 70L201 70L198 73L199 70L198 70L197 73L198 74L201 73L200 76L203 76L203 75L202 69L203 69L203 74L204 74L203 68L196 69M207 68L208 76L213 76L212 73L211 75L210 75L210 69L211 69L212 72L213 72L213 69L214 69L214 76L219 76C218.364 72.1537 218.867 70.19 223 70L223 69L216 68L217 75L215 75L214 68L207 68M227 68L227 69L229 73L230 73L227 68M233 68L234 69L233 68M239 68L239 75L234 75L234 76L242 76L239 68M242.667 68.3333L243.333 68.6667L242.667 68.3333M248 69L248 70L248 71L252 69L252 75L251 75L251 73L250 73L254 76L253 69L257 69L257 70C254.695 71.2731 256.059 71.9738 258 73L259 69L260 69L261 72L262 72L262 69L263 69L265 76L267 74L267 73L264 72L264 70L269 70C263.646 66.1289 254.269 68.5496 248 69M275.667 68.3333L276.333 68.6667L275.667 68.3333M280 68L281 69L280 68M285 68L286 75L283 74L287 76L287 69L288 69L289 72L290 72L285 68M291 68L292 75L288 73L297 76L297 75C294.866 71.7894 296.4 70.1634 300 70L298 74L300 73L299 76L300 76C301.609 68.5647 296.875 68.6877 291 68M10 69L10 70L22 70L10 69M24 69L24 70L27 70L24 69M28 69L29 70L28 69z"/>
<path style="fill:#28282a; stroke:none;" d="M63 69L64 70L63 69z"/>
<path style="fill:#615964; stroke:none;" d="M69 69L70 70L69 69z"/>
<path style="fill:#28282a; stroke:none;" d="M151 69L150 74L151 74L153 70L151 69z"/>
<path style="fill:#615964; stroke:none;" d="M153 69L153 71L155 71L153 69z"/>
<path style="fill:#99979a; stroke:none;" d="M154 69L155 71L151 71L151 72L154 72L151 73L151 74L155 73L153 75L153 76L157 76L154 69z"/>
<path style="fill:#615964; stroke:none;" d="M156 69L157 70L156 69z"/>
<path style="fill:#28282a; stroke:none;" d="M156 70L156 71L160 71L156 70z"/>
<path style="fill:#615964; stroke:none;" d="M159 69L160 70L159 69M162 69L157 76L162 75L163 71L162 73L163 73L164 73L162 69z"/>
<path style="fill:#28282a; stroke:none;" d="M163 69L164 70L163 69z"/>
<path style="fill:#615964; stroke:none;" d="M164 69L164 71L166 71L164 69M167 69L169 71L167 69M171 69L172 72L168 72L168 73L173 75L171 69z"/>
<path style="fill:#28282a; stroke:none;" d="M174 69L174 75L175 75L177 73L177 72L177 70L174 69z"/>
<path style="fill:#615964; stroke:none;" d="M177.667 69.3333L178.333 69.6667L177.667 69.3333z"/>
<path style="fill:#28282a; stroke:none;" d="M179 69L179 70L183 70L179 69z"/>
<path style="fill:#615964; stroke:none;" d="M184 69L186 75L184 69M187 69L188 70L187 69z"/>
<path style="fill:#28282a; stroke:none;" d="M187 70L187 71L191 71L187 70z"/>
<path style="fill:#615964; stroke:none;" d="M190 69L192 71L190 69z"/>
<path style="fill:#99979a; stroke:none;" d="M191 69L192 70L191 69z"/>
<path style="fill:#615964; stroke:none;" d="M197 69L196 75C198.914 74.8959 199.845 76.5715 201 73L198 74L197 73L197 69z"/>
<path style="fill:#28282a; stroke:none;" d="M198 69L198 70L201 71L198 69z"/>
<path style="fill:#615964; stroke:none;" d="M202 69C202.12 72.6916 202.313 74.7774 206 76L203 74L202 69M207 69L208 70L207 69M210 69L212 71L210 69M213.333 69.6667L213.667 70.3333L213.333 69.6667M215 69L215 75L217 75L217 69L215 69M219.333 69.6667L219.667 70.3333L219.333 69.6667z"/>
<path style="fill:#28282a; stroke:none;" d="M220 69L221 70L220 69z"/>
<path style="fill:#615964; stroke:none;" d="M221 69L221 71L223 71L221 69M226 69L227 70L226 69z"/>
<path style="fill:#28282a; stroke:none;" d="M227 69L226 71L227 69z"/>
<path style="fill:#615964; stroke:none;" d="M228 69L226 74L227 74L227 72L228 72L227 76L228 69M233 69L234 74L234 75L239 75L239 74L237 73L240 69L237 73L236 73L233 69M241 69L242 70L241 69z"/>
<path style="fill:#28282a; stroke:none;" d="M241 70L241 71L244 70L244 75L245 75L244 69L241 70z"/>
<path style="fill:#615964; stroke:none;" d="M244 69L245 70L244 69M246 69L246 75L251 73L252 69L247 72L248 69L246 69M253 69C253.12 72.6916 253.313 74.7774 257 76L257 75L253 69z"/>
<path style="fill:#28282a; stroke:none;" d="M254 69L254 70L257 70L254 69z"/>
<path style="fill:#615964; stroke:none;" d="M259 69L258 75L262 73L262 72L259 73L261 71L259 69M262 69L263 70L262 69M265 69L264 72L267 73L267 74L264 75L269 75L269 72L265 72L265 69z"/>
<path style="fill:#28282a; stroke:none;" d="M266 69L267 70L266 69z"/>
<path style="fill:#615964; stroke:none;" d="M267 69L267 71L269 71L267 69M274 69L275 70L274 69z"/>
<path style="fill:#28282a; stroke:none;" d="M274 70L274 71L278 71L274 70z"/>
<path style="fill:#615964; stroke:none;" d="M277 69L278 70L277 69z"/>
<path style="fill:#99979a; stroke:none;" d="M278 69L275 70L275 71L275 73L275 74L278 73L277 76L280 76L278 69z"/>
<path style="fill:#615964; stroke:none;" d="M279 69C279.12 72.6916 279.313 74.7774 283 76L281 69L279 69M284 69L284 75L286 75L286 69L284 69M287 69L289 71L287 69M290 69L288 73L291 75L292 75L292 69L290 69M293 69L294 70L293 69M296 69L295 75C297.914 74.8959 298.845 76.5715 300 73L297 74L296 73L296 69z"/>
<path style="fill:#28282a; stroke:none;" d="M297 69L297 70L300 71L297 69z"/>
<path style="fill:#615964; stroke:none;" d="M151 70L152 71L151 70z"/>
<path style="fill:#99979a; stroke:none;" d="M157 70L159 74L159 70L157 70z"/>
<path style="fill:#28282a; stroke:none;" d="M167 70L167 75L168 75L167 70M171.333 70.6667L171.667 71.3333L171.333 70.6667z"/>
<path style="fill:#99979a; stroke:none;" d="M175 70L175 71L180 72L175 70z"/>
<path style="fill:#615964; stroke:none;" d="M180 70L180 75L182 75L182 70L180 70z"/>
<path style="fill:#99979a; stroke:none;" d="M188 70L188 74L191 73L190 76L191 76L192 71L188 70z"/>
<path style="fill:#615964; stroke:none;" d="M199 70L200 71L199 70z"/>
<path style="fill:#28282a; stroke:none;" d="M207 70L207 75L208 75L207 70M210 70L210 73L212 72L212 71L210 70M218 70L218 74L219 74L218 70z"/>
<path style="fill:#99979a; stroke:none;" d="M220 70L219 74L223 74L220 70M225 70L226 76L227 76L228 73L227 73L227 75L226 75L225 70M227 70L228 71L227 70M235 72L238 72L236 70L235 72M242 70L242 74C243.813 72.4444 243.813 71.5556 242 70M245.333 70.6667L245.667 71.3333L245.333 70.6667z"/>
<path style="fill:#28282a; stroke:none;" d="M247.333 70.6667L247.667 71.3333L247.333 70.6667M251 70L251 75L252 75L251 70M259 70L259 73L261 72L261 71L259 70M262 70L262 75L263 75L262 70z"/>
<path style="fill:#99979a; stroke:none;" d="M266 70L269 72L269 71L266 70M273 70L274 71L273 70M281 70L281 74L282 74L281 70z"/>
<path style="fill:#28282a; stroke:none;" d="M287 70L287 75L288 75L287 70M293 70L293 75L294 75L293 70z"/>
<path style="fill:#99979a; stroke:none;" d="M297 70L296 73L297 73L297 70z"/>
<path style="fill:#615964; stroke:none;" d="M298 70L299 71L298 70z"/>
<path style="fill:#faf9f9; stroke:none;" d="M151 73L154 73L153 71L151 73z"/>
<path style="fill:#615964; stroke:none;" d="M156.333 71.6667L156.667 72.3333L156.333 71.6667z"/>
<path style="fill:#99979a; stroke:none;" d="M161 71L165 74L165 73L161 71z"/>
<path style="fill:#28282a; stroke:none;" d="M162 71L163 72L162 71z"/>
<path style="fill:#615964; stroke:none;" d="M175 71L176 72L175 71z"/>
<path style="fill:#faf9f9; stroke:none;" d="M178 71L176 74L179 75L178 71z"/>
<path style="fill:#615964; stroke:none;" d="M187 71L188 76L190 76L191 73L187 71z"/>
<path style="fill:#faf9f9; stroke:none;" d="M189.333 71.6667L189.667 72.3333L189.333 71.6667z"/>
<path style="fill:#99979a; stroke:none;" d="M195 71L195 74L196 74L195 71z"/>
<path style="fill:#faf9f9; stroke:none;" d="M198 71L198 73L200 73L200 71L198 71z"/>
<path style="fill:#28282a; stroke:none;" d="M213 71L213 75L214 75L213 71z"/>
<path style="fill:#faf9f9; stroke:none;" d="M220 71L220 73L222 73L220 71z"/>
<path style="fill:#99979a; stroke:none;" d="M233 71L233 74L234 74L233 71z"/>
<path style="fill:#28282a; stroke:none;" d="M236.333 71.6667L236.667 72.3333L236.333 71.6667z"/>
<path style="fill:#615964; stroke:none;" d="M240 71L244 76L240 71z"/>
<path style="fill:#faf9f9; stroke:none;" d="M242.333 71.6667L242.667 72.3333L242.333 71.6667z"/>
<path style="fill:#28282a; stroke:none;" d="M265 71L266 72L265 71z"/>
<path style="fill:#615964; stroke:none;" d="M273 71L273 74L275 71L273 71z"/>
<path style="fill:#faf9f9; stroke:none;" d="M275 71L275 73L277 73L277 71L275 71M297 71L297 74L299 71L297 71M158 72L159 73L158 72z"/>
<path style="fill:#28282a; stroke:none;" d="M164 72L166 74L164 72z"/>
<path style="fill:#615964; stroke:none;" d="M165 72L166 73L165 72z"/>
<path style="fill:#28282a; stroke:none;" d="M169 72L170 73L169 72z"/>
<path style="fill:#615964; stroke:none;" d="M177 72L178 73L177 72M211.667 72.3333L212.333 72.6667L211.667 72.3333z"/>
<path style="fill:#28282a; stroke:none;" d="M227 72L228 73L227 72z"/>
<path style="fill:#615964; stroke:none;" d="M230.333 72.6667L230.667 73.3333L230.333 72.6667z"/>
<path style="fill:#28282a; stroke:none;" d="M234 72L234 74L236 74L234 72M238 72L237 74L239 74L238 72M249 72L250 73L249 72M254.667 72.3333L255.333 72.6667L254.667 72.3333z"/>
<path style="fill:#615964; stroke:none;" d="M256 72L257 73L256 72z"/>
<path style="fill:#28282a; stroke:none;" d="M267 72L268 73L267 72z"/>
<path style="fill:#615964; stroke:none;" d="M154.333 73.6667L154.667 74.3333L154.333 73.6667z"/>
<path style="fill:#28282a; stroke:none;" d="M156.333 73.6667L156.667 74.3333L156.333 73.6667z"/>
<path style="fill:#99979a; stroke:none;" d="M175 73L175 74L179 76L179 75L175 73M206 73L206 76L207 76L206 73z"/>
<path style="fill:#615964; stroke:none;" d="M210.333 73.6667L210.667 74.3333L210.333 73.6667z"/>
<path style="fill:#28282a; stroke:none;" d="M229.333 73.6667L229.667 74.3333L229.333 73.6667z"/>
<path style="fill:#99979a; stroke:none;" d="M245.333 73.6667L245.667 74.3333L245.333 73.6667z"/>
<path style="fill:#faf9f9; stroke:none;" d="M255 73L255 74L258 74L255 73z"/>
<path style="fill:#99979a; stroke:none;" d="M260 73L262 76L260 73z"/>
<path style="fill:#28282a; stroke:none;" d="M268 73L269 74L268 73z"/>
<path style="fill:#99979a; stroke:none;" d="M269 73L270 74L269 73z"/>
<path style="fill:#28282a; stroke:none;" d="M274.333 73.6667L274.667 74.3333L274.333 73.6667z"/>
<path style="fill:#615964; stroke:none;" d="M277 73L275 76L277 73z"/>
<path style="fill:#28282a; stroke:none;" d="M290.333 73.6667L290.667 74.3333L290.333 73.6667z"/>
<path style="fill:#615964; stroke:none;" d="M150 74L153 76L150 74z"/>
<path style="fill:#28282a; stroke:none;" d="M153 74L154 75L153 74M159 74L160 75L159 74z"/>
<path style="fill:#99979a; stroke:none;" d="M160 74L161 75L160 74z"/>
<path style="fill:#28282a; stroke:none;" d="M162 74L163 75L162 74z"/>
<path style="fill:#615964; stroke:none;" d="M163 76L166 74L163 76M174 75L174 76L178 76L174 75z"/>
<path style="fill:#99979a; stroke:none;" d="M179 74L180 75L179 74z"/>
<path style="fill:#28282a; stroke:none;" d="M187 74L188 75L187 74M190 74L191 75L190 74M197 74L198 75L197 74z"/>
<path style="fill:#615964; stroke:none;" d="M212 74L213 75L212 74M218 74L221 76L218 74z"/>
<path style="fill:#28282a; stroke:none;" d="M221 74L222 75L221 74z"/>
<path style="fill:#615964; stroke:none;" d="M222 74L223 75L222 74z"/>
<path style="fill:#28282a; stroke:none;" d="M226 74L227 75L226 74z"/>
<path style="fill:#99979a; stroke:none;" d="M230 74L229 76L231 76L230 74z"/>
<path style="fill:#28282a; stroke:none;" d="M241 74L242 75L241 74z"/>
<path style="fill:#99979a; stroke:none;" d="M248 74L249 75L248 74M255 74L255 75L260 76L260 75L255 74z"/>
<path style="fill:#615964; stroke:none;" d="M261 74L262 75L261 74z"/>
<path style="fill:#99979a; stroke:none;" d="M273 74L274 75L273 74z"/>
<path style="fill:#28282a; stroke:none;" d="M277 74L278 75L277 74M280 74L281 75L280 74M296 74L297 75L296 74z"/>
<path style="fill:#99979a; stroke:none;" d="M159 75L160 76L159 75M162 75L163 76L162 75M180.667 75.3333L181.333 75.6667L180.667 75.3333M196.667 75.3333L197.333 75.6667L196.667 75.3333z"/>
<path style="fill:#615964; stroke:none;" d="M207 75L208 76L207 75M213 75L214 76L213 75z"/>
<path style="fill:#99979a; stroke:none;" d="M221.667 75.3333L222.333 75.6667L221.667 75.3333M244 75L245 76L244 75M246.667 75.3333L247.333 75.6667L246.667 75.3333z"/>
<path style="fill:#615964; stroke:none;" d="M262 75L263 76L262 75z"/>
<path style="fill:#99979a; stroke:none;" d="M268 75L269 76L268 75M274 75L275 76L274 75z"/>
<path style="fill:#615964; stroke:none;" d="M287 75L288 76L287 75z"/>
 
</svg>
